<svg width="40" height="40" viewBox="0 0 40 40" fill="none" xmlns="http://www.w3.org/2000/svg">
<path d="M38.3333 18.3333C37.4133 18.3333 36.6667 19.08 36.6667 20C36.6667 29.19 29.19 36.6667 20 36.6667C10.81 36.6667 3.33333 29.19 3.33333 20C3.33333 10.81 10.81 3.33333 20 3.33333C24.4742 3.33333 28.6742 5.08167 31.8275 8.25667C32.475 8.91 33.5308 8.91417 34.1842 8.265C34.8375 7.61667 34.8408 6.56167 34.1925 5.90833C30.4092 2.09833 25.3683 0 20 0C8.97167 0 0 8.97167 0 20C0 31.0283 8.97167 40 20 40C31.0283 40 40 31.0283 40 20C40 19.08 39.2533 18.3333 38.3333 18.3333Z" fill="#09D9FE"/>
<path d="M26.6667 18.3333H21.6667V13.3333C21.6667 12.4133 20.92 11.6667 20 11.6667C19.08 11.6667 18.3334 12.4133 18.3334 13.3333V18.3333H13.3334C12.4134 18.3333 11.6667 19.08 11.6667 20C11.6667 20.92 12.4134 21.6667 13.3334 21.6667H18.3334V26.6667C18.3334 27.5867 19.08 28.3333 20 28.3333C20.92 28.3333 21.6667 27.5867 21.6667 26.6667V21.6667H26.6667C27.5867 21.6667 28.3334 20.92 28.3334 20C28.3334 19.08 27.5867 18.3333 26.6667 18.3333Z" fill="#09D9FE"/>
</svg>
