<svg width="33" height="35" viewBox="0 0 33 35" fill="none" xmlns="http://www.w3.org/2000/svg">
<g clip-path="url(#clip0)">
<path d="M8.68068 7.56938V5.24054C8.68068 4.91901 8.43775 4.65833 8.13813 4.65833H0.542542C0.242925 4.65833 0 4.91901 0 5.24054V7.56938H8.68068Z" fill="#09D9FE"/>
<path d="M0 8.73376V27.9467H8.68068V8.73376H0ZM6.51051 16.3025H2.17017C1.87055 16.3025 1.62763 16.0418 1.62763 15.7203V11.0626C1.62763 10.7411 1.87055 10.4804 2.17017 10.4804H6.51051C6.81012 10.4804 7.05305 10.7411 7.05305 11.0626V15.7203C7.05305 16.0418 6.81012 16.3025 6.51051 16.3025Z" fill="#09D9FE"/>
<path d="M0 31.44V34.351C0 34.6726 0.242925 34.9333 0.542542 34.9333H8.13813C8.43775 34.9333 8.68068 34.6726 8.68068 34.351V31.44H0Z" fill="#09D9FE"/>
<path d="M0 29.1112H8.68068V30.2756H0V29.1112Z" fill="#09D9FE"/>
<path d="M9.76575 29.1112H16.8188V30.2756H9.76575V29.1112Z" fill="#09D9FE"/>
<path d="M16.8188 2.32976V0.583126C16.8188 0.261602 16.5759 0.000915527 16.2763 0.000915527H10.3083C10.0087 0.000915527 9.76575 0.261602 9.76575 0.583126V2.32976H16.8188Z" fill="#09D9FE"/>
<path d="M9.76575 6.40494H16.8188V27.9467H9.76575V6.40494Z" fill="#09D9FE"/>
<path d="M9.76575 31.44V34.351C9.76575 34.6726 10.0087 34.9333 10.3083 34.9333H16.2763C16.5759 34.9333 16.8188 34.6726 16.8188 34.351V31.44H9.76575Z" fill="#09D9FE"/>
<path d="M9.76575 3.4939H16.8188V5.24053H9.76575V3.4939Z" fill="#09D9FE"/>
<path d="M17.8909 12.0571L18.1812 13.253L27.3695 10.6237L27.0789 9.42773L17.8909 12.0571Z" fill="#09D9FE"/>
<path d="M22.4249 30.7083L31.6129 28.0789L31.0312 25.6856L21.8427 28.3149L22.4249 30.7083Z" fill="#09D9FE"/>
<path d="M30.7573 24.559L27.6437 11.7503L18.4552 14.3797L21.5687 27.1883L30.7573 24.559Z" fill="#09D9FE"/>
<path d="M17.617 10.9304L26.8047 8.3014L26.0259 5.09498C25.9456 4.78454 25.6499 4.59891 25.3585 4.67595L17.2204 7.00479C16.933 7.08922 16.7616 7.40506 16.835 7.71492L17.617 10.9304Z" fill="#09D9FE"/>
<path d="M31.8868 29.2056L22.6982 31.8349L23.3454 34.4966C23.383 34.6467 23.4747 34.7746 23.6005 34.852C23.6824 34.9051 23.7762 34.9333 23.8718 34.9333C23.9192 34.9333 23.9666 34.9273 24.0127 34.9159L32.1509 32.5871C32.4383 32.5027 32.6097 32.1865 32.5363 31.8767L31.8868 29.2056Z" fill="#09D9FE"/>
</g>
<defs>
<clipPath id="clip0">
<rect width="32.5532" height="34.9333" fill="white"/>
</clipPath>
</defs>
</svg>
