<svg width="50" height="50" viewBox="0 0 50 50" fill="none" xmlns="http://www.w3.org/2000/svg">
<g clip-path="url(#clip0)">
<path d="M13.3331 10.834V7.50076C13.3331 7.04056 12.96 6.66744 12.4998 6.66744H0.833324C0.373128 6.66744 7.62939e-06 7.04056 7.62939e-06 7.50076V10.834H13.3331Z" fill="black"/>
<path d="M7.62939e-06 12.5006V40.0001H13.3331V12.5006H7.62939e-06ZM9.99981 23.3338H3.33327C2.87308 23.3338 2.49996 22.9606 2.49996 22.5004V15.8339C2.49996 15.3737 2.87308 15.0006 3.33327 15.0006H9.99981C10.46 15.0006 10.8331 15.3737 10.8331 15.8339V22.5004C10.8331 22.9606 10.46 23.3338 9.99981 23.3338Z" fill="black"/>
<path d="M7.62939e-06 45V49.1666C7.62939e-06 49.6268 0.373128 49.9999 0.833324 49.9999H12.4998C12.96 49.9999 13.3331 49.6268 13.3331 49.1666V45H7.62939e-06Z" fill="black"/>
<path d="M7.62939e-06 41.6667H13.3331V43.3334H7.62939e-06V41.6667Z" fill="black"/>
<path d="M14.9997 41.6667H25.8328V43.3334H14.9997V41.6667Z" fill="black"/>
<path d="M25.8328 3.33417V0.834222C25.8328 0.374027 25.4597 0.000905991 24.9995 0.000905991H15.833C15.3728 0.000905991 14.9997 0.374027 14.9997 0.834222V3.33417H25.8328Z" fill="black"/>
<path d="M14.9997 9.16739H25.8328V40.0001H14.9997V9.16739Z" fill="black"/>
<path d="M14.9997 45V49.1666C14.9997 49.6268 15.3728 49.9999 15.833 49.9999H24.9995C25.4597 49.9999 25.8328 49.6268 25.8328 49.1666V45H14.9997Z" fill="black"/>
<path d="M14.9997 5.0008H25.8328V7.50075H14.9997V5.0008Z" fill="black"/>
<path d="M27.4795 17.2572L27.9255 18.969L42.0382 15.2057L41.5918 13.4939L27.4795 17.2572Z" fill="black"/>
<path d="M34.4435 43.9527L48.5558 40.1893L47.6622 36.7637L33.5491 40.527L34.4435 43.9527Z" fill="black"/>
<path d="M47.2415 35.1512L42.4593 16.8182L28.3462 20.5816L33.1284 38.9145L47.2415 35.1512Z" fill="black"/>
<path d="M27.0588 15.6447L41.1706 11.8818L39.9744 7.29243C39.8511 6.8481 39.397 6.5824 38.9494 6.69267L26.4496 10.0259C26.0082 10.1468 25.7449 10.5988 25.8576 11.0423L27.0588 15.6447Z" fill="black"/>
<path d="M48.9765 41.8018L34.8634 45.5652L35.8574 49.3749C35.9152 49.5897 36.056 49.7728 36.2493 49.8835C36.375 49.9596 36.519 49.9999 36.6659 49.9999C36.7388 49.9999 36.8116 49.9913 36.8824 49.9751L49.3821 46.6418C49.8236 46.521 50.0869 46.0685 49.9742 45.625L48.9765 41.8018Z" fill="black"/>
</g>
<defs>
<clipPath id="clip0">
<rect width="50" height="50" fill="white"/>
</clipPath>
</defs>
</svg>
